<svg xmlns="http://www.w3.org/2000/svg" width="340" height="340" viewBox="0 0 340 340">
  <!-- Nautical elements only (no embedded images) -->

  <!-- Anchor (right side) -->
  <g transform="translate(268,70) rotate(-10)" opacity="0.45">
    <circle cx="0" cy="-24" r="8" fill="none" stroke="#f0e6d0" stroke-width="3"/>
    <line x1="0" y1="-16" x2="0" y2="26" stroke="#f0e6d0" stroke-width="3" stroke-linecap="round"/>
    <line x1="-18" y1="4" x2="18" y2="4" stroke="#f0e6d0" stroke-width="3" stroke-linecap="round"/>
    <path d="M0,26 Q-24,28 -20,10" fill="none" stroke="#f0e6d0" stroke-width="3" stroke-linecap="round"/>
    <path d="M0,26 Q24,28 20,10" fill="none" stroke="#f0e6d0" stroke-width="3" stroke-linecap="round"/>
    <path d="M-22,12 L-18,6 L-16,14 Z" fill="#f0e6d0" opacity="0.5"/>
    <path d="M22,12 L18,6 L16,14 Z" fill="#f0e6d0" opacity="0.5"/>
  </g>

  <!-- Ocean waves (bottom) -->
  <g fill="none" stroke="#7ab0d4" stroke-linecap="round">
    <path d="M-15,260 Q20,244 55,260 Q90,276 125,260 Q160,244 195,260 Q230,276 265,260 Q300,244 335,260" stroke-width="2.5" opacity="0.3"/>
    <path d="M-25,276 Q10,264 45,276 Q80,288 115,276 Q150,264 185,276 Q220,288 255,276 Q290,264 325,276" stroke-width="2" opacity="0.25"/>
    <path d="M0,290 Q30,282 60,290 Q90,298 120,290 Q150,282 180,290 Q210,298 240,290 Q270,282 300,290" stroke-width="1.5" opacity="0.2"/>
  </g>

  <!-- Compass rose (bottom-right) -->
  <g transform="translate(270,220)" fill="#f0e6d0" opacity="0.35">
    <polygon points="0,-16 3,-4 0,0 -3,-4"/>
    <polygon points="0,16 3,4 0,0 -3,4"/>
    <polygon points="-16,0 -4,-3 0,0 -4,3"/>
    <polygon points="16,0 4,-3 0,0 4,3"/>
    <circle cx="0" cy="0" r="3"/>
    <circle cx="0" cy="0" r="18" fill="none" stroke="#f0e6d0" stroke-width="0.8" opacity="0.4"/>
  </g>

  <!-- Small anchor (bottom-left) -->
  <g transform="translate(55,245) rotate(15) scale(0.5)" opacity="0.25">
    <circle cx="0" cy="-24" r="8" fill="none" stroke="#f0e6d0" stroke-width="3"/>
    <line x1="0" y1="-16" x2="0" y2="26" stroke="#f0e6d0" stroke-width="3" stroke-linecap="round"/>
    <line x1="-18" y1="4" x2="18" y2="4" stroke="#f0e6d0" stroke-width="3" stroke-linecap="round"/>
    <path d="M0,26 Q-24,28 -20,10" fill="none" stroke="#f0e6d0" stroke-width="3" stroke-linecap="round"/>
    <path d="M0,26 Q24,28 20,10" fill="none" stroke="#f0e6d0" stroke-width="3" stroke-linecap="round"/>
  </g>

  <!-- Scatter dots -->
  <g fill="#f0e6d0">
    <circle cx="230" cy="30" r="2" opacity="0.18"/>
    <circle cx="310" cy="155" r="1.8" opacity="0.15"/>
    <circle cx="25" cy="195" r="1.8" opacity="0.15"/>
    <circle cx="200" cy="305" r="2" opacity="0.13"/>
    <circle cx="170" cy="215" r="1.5" opacity="0.12"/>
  </g>
</svg>
